<svg width="128" height="128" viewBox="0 0 128 128" xmlns="http://www.w3.org/2000/svg">
    <circle cx="64" cy="64" r="56" fill="white" stroke="#E0E0E0" stroke-width="1"/>
    <path d="M12 64.034c0 23.025 14.885 42.472 35.555 49.367 2.6.456 3.575-1.105 3.575-2.47 0-1.237-.065-5.334-.065-9.692C38 103.644 34.62 98.05 33.58 95.124c-.585-1.496-3.12-6.114-5.33-7.35-1.82-.976-4.42-3.382-.065-3.447 4.095-.065 7.02 3.772 7.995 5.333 4.68 7.87 12.155 5.66 15.145 4.293.455-3.382 1.82-5.66 3.315-6.96-11.57-1.3-23.66-5.788-23.66-25.69 0-5.66 2.015-10.343 5.33-13.985-.52-1.3-2.34-6.634.52-13.79 0 0 4.355-1.365 14.3 5.334 4.16-1.17 8.58-1.756 13-1.756s8.84.586 13 1.756c9.945-6.764 14.3-5.333 14.3-5.333 2.86 7.154 1.04 12.487.52 13.788 3.315 3.642 5.33 8.26 5.33 13.984 0 19.968-12.155 24.39-23.725 25.692 1.885 1.626 3.51 4.748 3.51 9.626 0 6.96-.065 12.553-.065 14.31 0 1.365.975 2.99 3.575 2.47C101.115 106.507 116 86.995 116 64.035 116 35.284 92.73 12 64 12S12 35.285 12 64.034z" fill="#8b5cf6"/>
</svg>